<svg xmlns="http://www.w3.org/2000/svg" viewBox="540 90 440 840">
<defs>
<linearGradient id="g" x1="0%" y1="0%" x2="100%" y2="100%">
<stop offset="0%" stop-color="#22D9D6"/>
<stop offset="100%" stop-color="#1297E0"/>
</linearGradient>
</defs>
<g fill="url(#g)" fill-rule="evenodd">
<path d="M 772.0,898.5 L 769.0,898.5 L 766.5,898.0 L 764.0,897.5 L 762.5,896.0 L 761.0,894.5 L 759.5,893.0 L 759.0,890.5 L 758.0,888.5 L 757.5,886.0 L 756.5,884.0 L 757.5,882.0 L 758.0,879.5 L 760.0,878.5 L 762.0,877.5 L 764.0,876.5 L 766.0,875.5 L 767.5,874.0 L 769.5,873.0 L 771.5,872.0 L 773.5,871.0 L 775.0,869.5 L 777.0,868.5 L 778.5,867.0 L 780.5,866.0 L 782.0,864.5 L 783.5,863.0 L 785.0,861.5 L 787.0,860.5 L 788.5,859.0 L 790.0,857.5 L 791.5,856.0 L 793.0,854.5 L 794.5,853.0 L 795.5,851.0 L 797.0,849.5 L 798.5,848.0 L 800.0,846.5 L 801.0,844.5 L 802.5,843.0 L 803.5,841.0 L 805.0,839.5 L 806.0,837.5 L 807.0,835.5 L 808.5,834.0 L 809.5,832.0 L 810.5,830.0 L 811.5,828.0 L 812.5,826.0 L 813.5,824.0 L 814.5,822.0 L 815.5,820.0 L 816.5,818.0 L 817.5,816.0 L 818.0,813.5 L 819.0,811.5 L 819.5,809.0 L 820.5,807.0 L 821.5,805.0 L 821.5,802.0 L 822.5,800.0 L 823.5,798.0 L 823.5,795.0 L 824.5,793.0 L 824.5,790.0 L 825.5,788.0 L 825.5,785.0 L 826.5,783.0 L 826.5,780.0 L 826.5,777.0 L 827.5,775.0 L 827.5,772.0 L 827.5,769.0 L 827.5,766.0 L 827.5,763.0 L 827.5,760.0 L 827.5,757.0 L 827.5,754.0 L 827.5,751.0 L 826.5,749.0 L 826.5,746.0 L 826.5,743.0 L 825.5,741.0 L 825.5,738.0 L 824.5,736.0 L 824.5,733.0 L 823.5,731.0 L 822.5,729.0 L 822.0,726.5 L 821.5,724.0 L 820.5,722.0 L 819.5,720.0 L 819.0,717.5 L 818.0,715.5 L 817.5,713.0 L 816.0,711.5 L 815.0,709.5 L 814.0,707.5 L 813.0,705.5 L 812.0,703.5 L 810.5,702.0 L 809.5,700.0 L 808.5,698.0 L 807.0,696.5 L 805.5,695.0 L 804.5,693.0 L 803.0,691.5 L 801.5,690.0 L 800.0,688.5 L 798.5,687.0 L 797.0,685.5 L 797.0,683.5 L 798.5,683.0 L 800.0,684.5 L 802.0,683.5 L 805.0,683.5 L 807.0,684.5 L 809.0,683.5 L 811.0,684.5 L 813.0,683.5 L 815.0,684.5 L 817.5,684.0 L 819.0,684.5 L 821.0,683.5 L 824.0,683.5 L 827.0,683.5 L 830.0,683.5 L 833.0,683.5 L 836.0,683.5 L 839.0,683.5 L 840.5,684.0 L 843.0,683.5 L 844.5,684.0 L 846.0,684.5 L 849.0,684.5 L 852.0,684.5 L 855.0,684.5 L 858.0,684.5 L 861.0,684.5 L 864.0,684.5 L 866.0,683.5 L 868.0,684.5 L 869.5,684.0 L 872.0,684.5 L 875.0,684.5 L 878.0,684.5 L 880.5,684.0 L 882.0,684.5 L 883.5,684.0 L 885.0,683.5 L 887.0,684.5 L 889.0,683.5 L 892.0,683.5 L 894.5,684.0 L 896.0,683.5 L 899.0,683.5 L 901.5,683.0 L 901.5,680.0 L 901.5,677.0 L 901.5,674.0 L 900.5,672.0 L 900.5,669.0 L 900.5,666.0 L 900.5,663.0 L 899.5,661.0 L 899.5,658.0 L 899.0,655.5 L 898.5,653.0 L 898.0,650.5 L 897.5,648.0 L 896.5,646.0 L 896.5,643.0 L 895.5,641.0 L 894.5,639.0 L 894.0,636.5 L 893.5,634.0 L 892.5,632.0 L 891.5,630.0 L 891.0,627.5 L 890.0,625.5 L 889.5,623.0 L 888.5,621.0 L 887.5,619.0 L 886.5,617.0 L 885.5,615.0 L 884.5,613.0 L 883.5,611.0 L 882.0,609.5 L 881.0,607.5 L 880.0,605.5 L 878.5,604.0 L 877.5,602.0 L 876.5,600.0 L 875.5,598.0 L 874.0,596.5 L 873.0,594.5 L 871.5,593.0 L 870.0,591.5 L 868.5,590.0 L 867.5,588.0 L 866.0,586.5 L 864.5,585.0 L 863.0,583.5 L 861.5,582.0 L 860.0,580.5 L 858.5,579.0 L 857.0,577.5 L 855.5,576.0 L 854.0,574.5 L 852.5,573.0 L 851.0,571.5 L 849.0,570.5 L 847.5,569.0 L 846.0,567.5 L 844.0,566.5 L 842.0,565.5 L 840.5,564.0 L 838.5,563.0 L 837.0,561.5 L 835.0,560.5 L 833.0,559.5 L 831.5,558.0 L 829.5,557.0 L 828.0,555.5 L 826.0,554.5 L 824.0,553.5 L 822.0,552.5 L 820.0,551.5 L 818.0,550.5 L 816.0,549.5 L 814.0,548.5 L 812.0,547.5 L 810.0,546.5 L 807.5,546.0 L 805.5,545.0 L 803.5,544.0 L 801.5,543.0 L 799.0,542.5 L 797.0,541.5 L 795.0,540.5 L 793.0,539.5 L 790.5,539.0 L 788.0,538.5 L 786.0,537.5 L 784.0,536.5 L 781.5,536.0 L 779.5,535.0 L 777.0,534.5 L 775.0,533.5 L 772.5,533.0 L 770.5,532.0 L 768.0,531.5 L 766.0,530.5 L 763.5,530.0 L 761.0,529.5 L 759.0,528.5 L 757.0,527.5 L 754.5,527.0 L 752.0,526.5 L 750.0,525.5 L 747.5,525.0 L 745.0,524.5 L 743.0,523.5 L 741.0,522.5 L 738.5,522.0 L 736.0,521.5 L 734.0,520.5 L 732.0,519.5 L 729.0,519.5 L 727.0,518.5 L 725.0,517.5 L 723.0,516.5 L 720.5,516.0 L 718.0,515.5 L 716.0,514.5 L 714.0,513.5 L 711.5,513.0 L 709.0,512.5 L 707.0,511.5 L 705.0,510.5 L 703.0,509.5 L 700.5,509.0 L 698.5,508.0 L 696.0,507.5 L 694.5,506.0 L 692.0,505.5 L 690.0,504.5 L 688.0,503.5 L 686.0,502.5 L 684.0,501.5 L 682.0,500.5 L 680.0,499.5 L 678.0,498.5 L 676.0,497.5 L 674.0,496.5 L 672.0,495.5 L 670.0,494.5 L 668.0,493.5 L 666.0,492.5 L 664.5,491.0 L 662.5,490.0 L 660.5,489.0 L 659.0,487.5 L 657.0,486.5 L 655.0,485.5 L 653.5,484.0 L 651.5,483.0 L 650.0,481.5 L 648.0,480.5 L 646.5,479.0 L 644.5,478.0 L 643.0,476.5 L 641.5,475.0 L 639.5,474.0 L 638.0,472.5 L 636.5,471.0 L 634.5,470.0 L 633.0,468.5 L 631.5,467.0 L 630.0,465.5 L 628.5,464.0 L 626.5,463.0 L 625.0,461.5 L 624.0,459.5 L 622.5,458.0 L 621.0,456.5 L 619.5,455.0 L 618.0,453.5 L 616.5,452.0 L 615.0,450.5 L 613.5,449.0 L 612.5,447.0 L 611.0,445.5 L 609.5,444.0 L 608.0,442.5 L 607.0,440.5 L 605.5,439.0 L 604.5,437.0 L 603.0,435.5 L 601.5,434.0 L 600.5,432.0 L 599.0,430.5 L 598.0,428.5 L 597.0,426.5 L 595.5,425.0 L 594.5,423.0 L 593.5,421.0 L 592.5,419.0 L 591.0,417.5 L 590.0,415.5 L 589.0,413.5 L 588.0,411.5 L 587.0,409.5 L 586.0,407.5 L 585.0,405.5 L 584.0,403.5 L 583.0,401.5 L 582.0,399.5 L 581.0,397.5 L 580.0,395.5 L 579.5,393.0 L 578.5,391.0 L 577.5,389.0 L 576.5,387.0 L 576.0,384.5 L 575.5,382.0 L 574.5,380.0 L 573.5,378.0 L 573.0,375.5 L 572.5,373.0 L 571.5,371.0 L 571.0,368.5 L 570.5,366.0 L 569.5,364.0 L 569.5,361.0 L 568.5,359.0 L 568.5,356.0 L 567.5,354.0 L 567.0,351.5 L 566.5,349.0 L 566.5,346.0 L 565.5,344.0 L 565.5,341.0 L 565.5,338.0 L 564.5,336.0 L 564.5,333.0 L 564.5,330.0 L 563.5,328.0 L 563.5,325.0 L 563.5,322.0 L 563.5,319.0 L 563.5,316.0 L 563.5,313.0 L 563.5,310.0 L 563.5,307.0 L 563.5,304.0 L 563.5,301.0 L 563.5,298.0 L 563.5,295.0 L 563.5,292.0 L 563.5,289.0 L 563.5,286.0 L 564.5,284.0 L 564.5,281.0 L 564.5,278.0 L 565.5,276.0 L 565.5,273.0 L 566.0,270.5 L 566.5,268.0 L 567.0,265.5 L 567.5,263.0 L 568.5,261.0 L 568.5,258.0 L 569.5,256.0 L 569.5,253.0 L 570.5,251.0 L 571.0,248.5 L 571.5,246.0 L 572.5,244.0 L 573.5,242.0 L 574.0,239.5 L 574.5,237.0 L 575.5,235.0 L 576.5,233.0 L 577.5,231.0 L 578.0,228.5 L 579.0,226.5 L 580.0,224.5 L 581.0,222.5 L 582.0,220.5 L 583.0,218.5 L 584.0,216.5 L 585.0,214.5 L 586.0,212.5 L 587.0,210.5 L 588.0,208.5 L 589.5,207.0 L 590.5,205.0 L 591.5,203.0 L 592.5,201.0 L 594.0,199.5 L 595.0,197.5 L 596.5,196.0 L 597.5,194.0 L 598.5,192.0 L 600.0,190.5 L 601.5,189.0 L 602.5,187.0 L 604.0,185.5 L 605.0,183.5 L 606.5,182.0 L 608.0,180.5 L 609.5,179.0 L 611.0,177.5 L 612.0,175.5 L 613.5,174.0 L 615.0,172.5 L 616.5,171.0 L 618.0,169.5 L 619.5,168.0 L 621.0,166.5 L 622.5,165.0 L 624.0,163.5 L 625.5,162.0 L 627.5,161.0 L 629.0,159.5 L 630.5,158.0 L 632.0,156.5 L 634.0,155.5 L 635.5,154.0 L 637.0,152.5 L 638.5,151.0 L 640.5,150.0 L 642.0,148.5 L 644.0,147.5 L 645.5,146.0 L 647.5,145.0 L 649.0,143.5 L 651.0,142.5 L 652.5,141.0 L 654.5,140.0 L 656.0,138.5 L 658.0,137.5 L 660.0,136.5 L 662.0,135.5 L 664.0,134.5 L 666.0,133.5 L 668.0,132.5 L 669.5,131.0 L 671.5,130.0 L 673.5,129.0 L 675.5,128.0 L 677.5,127.0 L 680.0,126.5 L 682.0,125.5 L 684.0,124.5 L 686.0,123.5 L 688.0,122.5 L 690.0,121.5 L 692.0,120.5 L 694.5,120.0 L 696.5,119.0 L 699.0,118.5 L 701.0,117.5 L 703.0,116.5 L 705.5,116.0 L 708.0,115.5 L 710.0,114.5 L 712.5,114.0 L 715.0,113.5 L 717.0,112.5 L 720.0,112.5 L 722.0,111.5 L 724.5,111.0 L 727.0,110.5 L 730.0,110.5 L 732.5,110.0 L 735.0,109.5 L 738.0,109.5 L 741.0,109.5 L 743.0,108.5 L 746.0,108.5 L 749.0,108.5 L 752.0,108.5 L 755.0,108.5 L 757.0,107.5 L 759.0,108.5 L 762.0,108.5 L 764.0,109.5 L 765.5,111.0 L 766.5,113.0 L 767.5,115.0 L 768.5,117.0 L 768.5,120.0 L 769.5,122.0 L 769.0,124.5 L 768.0,126.5 L 766.5,128.0 L 764.5,129.0 L 762.5,130.0 L 760.5,131.0 L 759.0,132.5 L 757.0,133.5 L 755.0,134.5 L 753.5,136.0 L 751.5,137.0 L 750.0,138.5 L 748.0,139.5 L 746.5,141.0 L 745.0,142.5 L 743.5,144.0 L 741.5,145.0 L 740.0,146.5 L 738.5,148.0 L 737.0,149.5 L 736.0,151.5 L 734.5,153.0 L 733.0,154.5 L 731.5,156.0 L 730.5,158.0 L 729.0,159.5 L 727.5,161.0 L 726.5,163.0 L 725.0,164.5 L 724.0,166.5 L 722.5,168.0 L 721.5,170.0 L 720.5,172.0 L 719.5,174.0 L 718.5,176.0 L 717.5,178.0 L 716.5,180.0 L 715.5,182.0 L 714.5,184.0 L 713.5,186.0 L 712.5,188.0 L 711.5,190.0 L 711.0,192.5 L 710.5,195.0 L 709.5,197.0 L 708.5,199.0 L 708.5,202.0 L 707.5,204.0 L 707.0,206.5 L 706.5,209.0 L 706.0,211.5 L 705.5,214.0 L 705.5,217.0 L 704.5,219.0 L 704.5,222.0 L 704.5,225.0 L 704.5,228.0 L 703.5,230.0 L 704.5,232.0 L 704.5,235.0 L 704.5,238.0 L 704.5,241.0 L 704.5,244.0 L 704.5,247.0 L 704.5,250.0 L 704.5,253.0 L 705.5,255.0 L 705.5,258.0 L 706.0,260.5 L 706.5,263.0 L 706.5,266.0 L 707.5,268.0 L 708.0,270.5 L 708.5,273.0 L 709.5,275.0 L 710.0,277.5 L 710.5,280.0 L 711.5,282.0 L 712.5,284.0 L 713.5,286.0 L 714.5,288.0 L 715.0,290.5 L 716.0,292.5 L 717.0,294.5 L 718.0,296.5 L 719.5,298.0 L 720.5,300.0 L 721.5,302.0 L 722.5,304.0 L 724.0,305.5 L 725.5,307.0 L 726.5,309.0 L 725.5,310.0 L 723.0,309.5 L 720.0,309.5 L 717.0,309.5 L 714.0,309.5 L 711.0,309.5 L 708.0,309.5 L 705.0,309.5 L 702.0,309.5 L 699.0,309.5 L 696.0,309.5 L 693.0,309.5 L 690.0,309.5 L 687.0,309.5 L 684.0,309.5 L 681.0,309.5 L 678.0,309.5 L 675.0,309.5 L 672.0,309.5 L 669.0,309.5 L 666.0,309.5 L 663.0,309.5 L 660.0,309.5 L 657.0,309.5 L 654.0,309.5 L 651.0,309.5 L 648.0,309.5 L 645.0,309.5 L 642.0,309.5 L 639.0,309.5 L 636.0,309.5 L 633.0,309.5 L 630.0,309.5 L 627.0,309.5 L 624.0,309.5 L 621.5,310.0 L 620.0,311.5 L 619.5,314.0 L 620.0,316.5 L 620.5,319.0 L 620.5,322.0 L 620.5,325.0 L 620.5,328.0 L 621.5,330.0 L 621.5,333.0 L 621.5,336.0 L 622.5,338.0 L 622.5,341.0 L 623.5,343.0 L 623.5,346.0 L 624.5,348.0 L 624.5,351.0 L 625.5,353.0 L 626.0,355.5 L 626.5,358.0 L 627.5,360.0 L 628.5,362.0 L 629.0,364.5 L 629.5,367.0 L 630.5,369.0 L 631.5,371.0 L 632.5,373.0 L 633.5,375.0 L 634.5,377.0 L 635.5,379.0 L 636.5,381.0 L 637.5,383.0 L 638.5,385.0 L 639.5,387.0 L 640.5,389.0 L 641.5,391.0 L 643.0,392.5 L 644.0,394.5 L 645.0,396.5 L 646.5,398.0 L 647.5,400.0 L 649.0,401.5 L 650.0,403.5 L 651.5,405.0 L 653.0,406.5 L 654.5,408.0 L 656.0,409.5 L 657.0,411.5 L 659.0,412.5 L 660.0,414.5 L 661.5,416.0 L 663.0,417.5 L 664.5,419.0 L 666.0,420.5 L 668.0,421.5 L 669.5,423.0 L 671.0,424.5 L 672.5,426.0 L 674.5,427.0 L 676.0,428.5 L 677.5,430.0 L 679.5,431.0 L 681.0,432.5 L 683.0,433.5 L 685.0,434.5 L 686.5,436.0 L 688.5,437.0 L 690.0,438.5 L 692.0,439.5 L 694.0,440.5 L 696.0,441.5 L 698.0,442.5 L 700.0,443.5 L 702.0,444.5 L 704.0,445.5 L 706.0,446.5 L 708.0,447.5 L 710.0,448.5 L 712.0,449.5 L 714.0,450.5 L 716.0,451.5 L 718.0,452.5 L 720.5,453.0 L 722.5,454.0 L 725.0,454.5 L 727.0,455.5 L 729.0,456.5 L 731.0,457.5 L 733.0,458.5 L 735.5,459.0 L 738.0,459.5 L 740.0,460.5 L 742.0,461.5 L 744.5,462.0 L 747.0,462.5 L 749.0,463.5 L 751.0,464.5 L 753.0,465.5 L 755.0,466.5 L 758.0,466.5 L 760.0,467.5 L 762.0,468.5 L 764.0,469.5 L 766.5,470.0 L 769.0,470.5 L 771.0,471.5 L 773.0,472.5 L 776.0,472.5 L 778.0,473.5 L 780.0,474.5 L 782.0,475.5 L 784.5,476.0 L 787.0,476.5 L 789.0,477.5 L 791.0,478.5 L 793.5,479.0 L 796.0,479.5 L 798.0,480.5 L 800.0,481.5 L 802.0,482.5 L 804.5,483.0 L 807.0,483.5 L 809.0,484.5 L 811.0,485.5 L 813.0,486.5 L 815.5,487.0 L 817.5,488.0 L 820.0,488.5 L 822.0,489.5 L 824.0,490.5 L 826.0,491.5 L 828.0,492.5 L 830.0,493.5 L 832.0,494.5 L 834.5,495.0 L 836.5,496.0 L 838.5,497.0 L 840.5,498.0 L 842.5,499.0 L 845.0,499.5 L 847.0,500.5 L 849.0,501.5 L 851.0,502.5 L 852.5,504.0 L 854.5,505.0 L 856.5,506.0 L 858.5,507.0 L 860.5,508.0 L 862.0,509.5 L 864.0,510.5 L 866.0,511.5 L 868.0,512.5 L 869.5,514.0 L 871.5,515.0 L 873.0,516.5 L 875.0,517.5 L 877.0,518.5 L 878.5,520.0 L 880.5,521.0 L 882.0,522.5 L 884.0,523.5 L 885.5,525.0 L 887.0,526.5 L 889.0,527.5 L 890.5,529.0 L 892.0,530.5 L 894.0,531.5 L 895.5,533.0 L 897.0,534.5 L 898.5,536.0 L 900.0,537.5 L 902.0,538.5 L 903.5,540.0 L 905.0,541.5 L 906.5,543.0 L 908.0,544.5 L 909.5,546.0 L 911.0,547.5 L 912.0,549.5 L 913.5,551.0 L 915.0,552.5 L 916.5,554.0 L 918.0,555.5 L 919.0,557.5 L 920.5,559.0 L 922.0,560.5 L 923.0,562.5 L 924.5,564.0 L 925.5,566.0 L 927.0,567.5 L 928.5,569.0 L 929.5,571.0 L 930.5,573.0 L 932.0,574.5 L 933.0,576.5 L 934.5,578.0 L 935.5,580.0 L 936.5,582.0 L 937.5,584.0 L 938.5,586.0 L 939.5,588.0 L 940.5,590.0 L 941.5,592.0 L 942.5,594.0 L 943.5,596.0 L 944.5,598.0 L 945.5,600.0 L 946.5,602.0 L 947.5,604.0 L 948.5,606.0 L 949.5,608.0 L 950.0,610.5 L 951.0,612.5 L 951.5,615.0 L 952.5,617.0 L 953.5,619.0 L 954.0,621.5 L 954.5,624.0 L 955.5,626.0 L 956.5,628.0 L 956.5,631.0 L 957.5,633.0 L 958.0,635.5 L 958.5,638.0 L 959.5,640.0 L 959.5,643.0 L 960.5,645.0 L 960.5,648.0 L 961.0,650.5 L 961.5,653.0 L 961.5,656.0 L 962.5,658.0 L 962.5,661.0 L 962.5,664.0 L 962.5,667.0 L 963.5,669.0 L 963.5,672.0 L 963.5,675.0 L 963.5,678.0 L 964.5,680.0 L 964.5,683.0 L 964.5,686.0 L 964.5,689.0 L 964.5,692.0 L 964.5,695.0 L 964.5,698.0 L 964.5,701.0 L 963.5,703.0 L 963.5,706.0 L 963.5,709.0 L 963.5,712.0 L 963.0,714.5 L 962.5,717.0 L 962.5,720.0 L 962.0,722.5 L 961.5,725.0 L 961.5,728.0 L 960.5,730.0 L 960.5,733.0 L 960.0,735.5 L 959.5,738.0 L 958.5,740.0 L 958.5,743.0 L 957.5,745.0 L 956.5,747.0 L 956.5,750.0 L 955.5,752.0 L 955.0,754.5 L 954.5,757.0 L 953.5,759.0 L 952.5,761.0 L 952.0,763.5 L 951.0,765.5 L 950.5,768.0 L 949.5,770.0 L 948.5,772.0 L 947.5,774.0 L 946.5,776.0 L 945.5,778.0 L 944.5,780.0 L 943.5,782.0 L 942.5,784.0 L 941.5,786.0 L 940.5,788.0 L 939.5,790.0 L 938.5,792.0 L 937.5,794.0 L 936.5,796.0 L 935.0,797.5 L 934.0,799.5 L 933.0,801.5 L 931.5,803.0 L 930.5,805.0 L 929.5,807.0 L 928.0,808.5 L 927.0,810.5 L 925.5,812.0 L 924.5,814.0 L 923.0,815.5 L 921.5,817.0 L 920.5,819.0 L 919.0,820.5 L 917.5,822.0 L 916.5,824.0 L 914.5,825.0 L 913.5,827.0 L 912.0,828.5 L 910.5,830.0 L 909.0,831.5 L 907.5,833.0 L 906.5,835.0 L 904.5,836.0 L 903.0,837.5 L 901.5,839.0 L 900.0,840.5 L 898.5,842.0 L 897.0,843.5 L 895.5,845.0 L 893.5,846.0 L 892.0,847.5 L 890.5,849.0 L 888.5,850.0 L 887.0,851.5 L 885.5,853.0 L 883.5,854.0 L 882.0,855.5 L 880.0,856.5 L 878.5,858.0 L 876.5,859.0 L 875.0,860.5 L 873.0,861.5 L 871.5,863.0 L 869.5,864.0 L 868.0,865.5 L 866.0,866.5 L 864.0,867.5 L 862.0,868.5 L 860.5,870.0 L 858.5,871.0 L 856.5,872.0 L 854.5,873.0 L 852.5,874.0 L 850.5,875.0 L 849.0,876.5 L 846.5,877.0 L 844.5,878.0 L 842.5,879.0 L 840.5,880.0 L 838.5,881.0 L 836.5,882.0 L 834.5,883.0 L 832.0,883.5 L 830.0,884.5 L 828.0,885.5 L 826.0,886.5 L 823.5,887.0 L 821.0,887.5 L 819.0,888.5 L 817.0,889.5 L 814.5,890.0 L 812.0,890.5 L 810.0,891.5 L 807.5,892.0 L 805.0,892.5 L 803.0,893.5 L 800.0,893.5 L 798.0,894.5 L 795.0,894.5 L 793.0,895.5 L 790.0,895.5 L 788.0,896.5 L 785.0,896.5 L 782.0,896.5 L 780.0,897.5 L 777.0,897.5 L 774.0,897.5 L 772.0,898.5 Z"/>
<path d="M 888.0,339.5 L 885.0,339.5 L 882.0,339.5 L 879.0,339.5 L 876.0,339.5 L 874.0,338.5 L 871.0,338.5 L 868.0,338.5 L 866.0,337.5 L 863.0,337.5 L 861.0,336.5 L 859.0,335.5 L 856.5,335.0 L 854.0,334.5 L 852.0,333.5 L 850.0,332.5 L 848.0,331.5 L 846.0,330.5 L 844.5,329.0 L 842.5,328.0 L 841.0,326.5 L 839.5,325.0 L 837.5,324.0 L 836.0,322.5 L 834.5,321.0 L 833.0,319.5 L 831.5,318.0 L 830.0,316.5 L 829.0,314.5 L 827.5,313.0 L 826.5,311.0 L 825.0,309.5 L 824.0,307.5 L 822.5,306.0 L 821.5,304.0 L 820.5,302.0 L 819.5,300.0 L 818.5,298.0 L 817.5,296.0 L 816.5,294.0 L 816.0,291.5 L 815.0,289.5 L 814.5,287.0 L 813.5,285.0 L 813.0,282.5 L 812.5,280.0 L 811.5,278.0 L 811.5,275.0 L 811.0,272.5 L 810.5,270.0 L 810.5,267.0 L 810.0,264.5 L 809.5,262.0 L 809.5,259.0 L 809.5,256.0 L 809.5,253.0 L 809.5,250.0 L 809.5,247.0 L 810.5,245.0 L 810.5,242.0 L 810.5,239.0 L 811.5,237.0 L 811.5,234.0 L 812.0,231.5 L 812.5,229.0 L 813.5,227.0 L 813.5,224.0 L 814.5,222.0 L 815.0,219.5 L 815.5,217.0 L 816.5,215.0 L 817.5,213.0 L 818.5,211.0 L 819.0,208.5 L 820.0,206.5 L 821.0,204.5 L 822.0,202.5 L 822.5,200.0 L 824.0,198.5 L 825.0,196.5 L 826.0,194.5 L 827.0,192.5 L 828.5,191.0 L 829.5,189.0 L 830.5,187.0 L 831.5,185.0 L 833.0,183.5 L 834.0,181.5 L 835.5,180.0 L 836.5,178.0 L 838.0,176.5 L 839.5,175.0 L 841.0,173.5 L 842.5,172.0 L 843.5,170.0 L 845.0,168.5 L 846.5,167.0 L 848.0,165.5 L 849.5,164.0 L 851.0,162.5 L 853.0,161.5 L 854.5,160.0 L 856.0,158.5 L 857.5,157.0 L 859.0,155.5 L 861.0,154.5 L 862.5,153.0 L 864.5,152.0 L 866.0,150.5 L 868.0,149.5 L 870.0,148.5 L 872.0,147.5 L 873.5,146.0 L 875.5,145.0 L 877.5,144.0 L 879.5,143.0 L 881.5,142.0 L 883.5,141.0 L 885.5,140.0 L 888.0,139.5 L 890.0,138.5 L 892.0,137.5 L 894.5,137.0 L 897.0,136.5 L 899.0,135.5 L 902.0,135.5 L 904.0,134.5 L 907.0,134.5 L 909.5,134.0 L 912.0,133.5 L 915.0,133.5 L 918.0,133.5 L 920.5,134.0 L 922.5,135.0 L 924.0,136.5 L 925.0,138.5 L 926.0,140.5 L 926.5,143.0 L 927.5,145.0 L 927.5,148.0 L 926.5,150.0 L 925.0,151.5 L 923.0,152.5 L 921.0,153.5 L 919.0,154.5 L 916.5,155.0 L 914.5,156.0 L 913.0,157.5 L 911.0,158.5 L 909.0,159.5 L 907.0,160.5 L 905.0,161.5 L 903.5,163.0 L 901.5,164.0 L 900.0,165.5 L 898.5,167.0 L 897.0,168.5 L 895.5,170.0 L 894.0,171.5 L 892.5,173.0 L 891.0,174.5 L 889.5,176.0 L 888.5,178.0 L 887.0,179.5 L 885.5,181.0 L 884.5,183.0 L 883.5,185.0 L 882.5,187.0 L 881.5,189.0 L 880.5,191.0 L 879.5,193.0 L 878.5,195.0 L 877.5,197.0 L 876.5,199.0 L 875.5,201.0 L 875.0,203.5 L 874.5,206.0 L 873.5,208.0 L 873.0,210.5 L 872.5,213.0 L 872.0,215.5 L 871.5,218.0 L 871.5,221.0 L 870.5,223.0 L 871.0,225.5 L 874.0,225.5 L 876.0,224.5 L 879.0,224.5 L 882.0,224.5 L 885.0,224.5 L 888.0,224.5 L 889.5,224.0 L 891.0,225.5 L 894.0,225.5 L 896.5,226.0 L 899.0,226.5 L 901.0,227.5 L 904.0,227.5 L 906.0,228.5 L 908.0,229.5 L 910.0,230.5 L 912.0,231.5 L 914.0,232.5 L 916.0,233.5 L 917.5,235.0 L 919.5,236.0 L 921.0,237.5 L 923.0,238.5 L 924.5,240.0 L 925.5,242.0 L 927.0,243.5 L 928.5,245.0 L 929.5,247.0 L 931.0,248.5 L 932.0,250.5 L 933.5,252.0 L 934.5,254.0 L 935.0,256.5 L 936.0,258.5 L 936.5,261.0 L 937.5,263.0 L 938.5,265.0 L 938.5,268.0 L 939.5,270.0 L 939.5,273.0 L 939.5,276.0 L 939.5,279.0 L 939.5,282.0 L 939.5,285.0 L 939.5,288.0 L 939.0,290.5 L 938.5,293.0 L 938.0,295.5 L 937.5,298.0 L 936.5,300.0 L 935.5,302.0 L 934.5,304.0 L 934.0,306.5 L 933.0,308.5 L 932.0,310.5 L 930.5,312.0 L 929.5,314.0 L 928.5,316.0 L 927.0,317.5 L 925.5,319.0 L 924.5,321.0 L 923.0,322.5 L 921.5,324.0 L 920.0,325.5 L 918.0,326.5 L 916.5,328.0 L 914.5,329.0 L 913.0,330.5 L 911.0,331.5 L 909.0,332.5 L 907.0,333.5 L 905.0,334.5 L 903.0,335.5 L 901.0,336.5 L 898.5,337.0 L 896.0,337.5 L 893.5,338.0 L 891.0,338.5 L 888.5,339.0 Z"/>
<path d="M 620.0,856.5 L 618.5,856.0 L 616.0,856.5 L 613.5,856.0 L 611.0,855.5 L 609.5,854.0 L 608.0,852.5 L 607.0,850.5 L 606.0,848.5 L 605.0,846.5 L 604.5,844.0 L 603.5,842.0 L 604.5,840.0 L 605.0,837.5 L 607.0,836.5 L 609.0,835.5 L 612.0,835.5 L 614.0,834.5 L 616.0,833.5 L 618.0,832.5 L 620.5,832.0 L 622.5,831.0 L 624.5,830.0 L 626.5,829.0 L 628.5,828.0 L 630.5,827.0 L 632.0,825.5 L 634.0,824.5 L 635.5,823.0 L 637.5,822.0 L 639.0,820.5 L 640.5,819.0 L 642.0,817.5 L 643.5,816.0 L 644.5,814.0 L 646.0,812.5 L 647.5,811.0 L 648.5,809.0 L 650.0,807.5 L 651.5,806.0 L 652.5,804.0 L 653.5,802.0 L 654.5,800.0 L 655.5,798.0 L 656.5,796.0 L 657.5,794.0 L 658.5,792.0 L 659.5,790.0 L 660.0,787.5 L 660.5,785.0 L 661.5,783.0 L 661.5,780.0 L 662.5,778.0 L 662.5,775.0 L 663.5,773.0 L 663.5,770.0 L 663.5,767.0 L 663.0,764.5 L 660.0,764.5 L 657.5,765.0 L 655.5,765.0 L 653.5,765.0 L 651.0,765.5 L 648.0,765.5 L 645.0,765.5 L 642.5,765.0 L 640.0,764.5 L 637.0,764.5 L 635.0,763.5 L 632.0,763.5 L 630.0,762.5 L 627.5,762.0 L 625.5,761.0 L 623.5,760.0 L 621.5,759.0 L 619.5,758.0 L 618.0,756.5 L 616.0,755.5 L 614.5,754.0 L 612.5,753.0 L 611.0,751.5 L 609.5,750.0 L 608.5,748.0 L 607.0,746.5 L 605.5,745.0 L 604.5,743.0 L 603.0,741.5 L 602.0,739.5 L 601.0,737.5 L 600.0,735.5 L 599.5,733.0 L 598.5,731.0 L 597.5,729.0 L 597.0,726.5 L 596.5,724.0 L 596.0,721.5 L 595.5,719.0 L 595.5,716.0 L 595.5,713.0 L 595.5,710.0 L 595.5,707.0 L 596.5,705.0 L 596.5,702.0 L 597.5,700.0 L 597.5,697.0 L 598.5,695.0 L 599.5,693.0 L 600.5,691.0 L 601.5,689.0 L 602.5,687.0 L 603.5,685.0 L 604.5,683.0 L 606.0,681.5 L 607.0,679.5 L 608.5,678.0 L 610.0,676.5 L 611.5,675.0 L 613.0,673.5 L 614.5,672.0 L 616.0,670.5 L 618.0,669.5 L 620.0,668.5 L 621.5,667.0 L 623.5,666.0 L 625.5,665.0 L 627.0,663.5 L 629.0,662.5 L 631.5,662.0 L 634.0,661.5 L 636.0,660.5 L 638.0,659.5 L 641.0,659.5 L 643.0,658.5 L 646.0,658.5 L 649.0,658.5 L 651.0,657.5 L 654.0,657.5 L 657.0,657.5 L 659.5,658.0 L 662.0,658.5 L 665.0,658.5 L 667.5,659.0 L 670.0,659.5 L 672.5,660.0 L 675.0,660.5 L 677.0,661.5 L 679.0,662.5 L 681.5,663.0 L 683.5,664.0 L 685.5,665.0 L 688.0,665.5 L 689.5,667.0 L 691.5,668.0 L 693.0,669.5 L 695.0,670.5 L 696.5,672.0 L 698.0,673.5 L 700.0,674.5 L 701.5,676.0 L 703.0,677.5 L 704.5,679.0 L 705.5,681.0 L 707.0,682.5 L 708.5,684.0 L 709.5,686.0 L 710.5,688.0 L 712.0,689.5 L 713.0,691.5 L 714.5,693.0 L 715.5,695.0 L 716.0,697.5 L 717.0,699.5 L 718.0,701.5 L 718.5,704.0 L 719.5,706.0 L 720.5,708.0 L 720.5,711.0 L 721.5,713.0 L 722.0,715.5 L 722.5,718.0 L 722.5,721.0 L 723.5,723.0 L 723.5,726.0 L 723.5,729.0 L 724.0,731.5 L 724.5,734.0 L 724.5,737.0 L 724.0,739.5 L 724.5,741.0 L 723.5,743.0 L 723.5,746.0 L 723.5,749.0 L 723.5,752.0 L 723.0,754.5 L 722.5,757.0 L 722.5,760.0 L 721.5,762.0 L 721.5,765.0 L 720.5,767.0 L 720.5,770.0 L 719.5,772.0 L 718.5,774.0 L 718.0,776.5 L 717.0,778.5 L 716.5,781.0 L 715.5,783.0 L 714.5,785.0 L 713.5,787.0 L 713.0,789.5 L 712.0,791.5 L 710.5,793.0 L 709.5,795.0 L 708.5,797.0 L 707.5,799.0 L 706.5,801.0 L 705.5,803.0 L 704.0,804.5 L 703.0,806.5 L 701.5,808.0 L 700.5,810.0 L 699.0,811.5 L 698.0,813.5 L 696.5,815.0 L 695.0,816.5 L 693.5,818.0 L 692.5,820.0 L 691.0,821.5 L 689.5,823.0 L 688.0,824.5 L 686.5,826.0 L 685.0,827.5 L 683.5,829.0 L 681.5,830.0 L 680.0,831.5 L 678.5,833.0 L 676.5,834.0 L 675.0,835.5 L 673.5,837.0 L 671.5,838.0 L 670.0,839.5 L 668.0,840.5 L 666.0,841.5 L 664.0,842.5 L 662.0,843.5 L 660.0,844.5 L 658.0,845.5 L 656.0,846.5 L 654.0,847.5 L 652.0,848.5 L 650.0,849.5 L 647.5,850.0 L 645.0,850.5 L 643.0,851.5 L 641.0,852.5 L 638.0,852.5 L 636.0,853.5 L 633.0,853.5 L 631.0,854.5 L 628.0,854.5 L 626.0,855.5 L 623.0,855.5 L 620.5,856.0 Z"/>
</g></svg>