<svg xmlns="http://www.w3.org/2000/svg" viewBox="0 0 500 500">
  <defs>
    <linearGradient id="teal" x1="0%" y1="0%" x2="100%" y2="0%">
      <stop offset="0%" stop-color="#2a9d8f"/>
      <stop offset="100%" stop-color="#76c8d4"/>
    </linearGradient>
  </defs>

  <rect width="500" height="500" fill="white"/>

  <!-- Left letterform: top arch -->
  <path d="M 60 245 L 60 105 A 50 50 0 0 0 110 55 L 170 55 A 50 50 0 0 1 220 105 L 220 245"
    fill="none" stroke="#111111" stroke-width="42"/>

  <!-- Left letterform: bottom arch -->
  <path d="M 60 255 L 60 395 A 50 50 0 0 1 110 445 L 170 445 A 50 50 0 0 0 220 395 L 220 255"
    fill="none" stroke="#111111" stroke-width="42"/>

  <!-- Right letterform: top arch -->
  <path d="M 280 245 L 280 105 A 50 50 0 0 0 330 55 L 390 55 A 50 50 0 0 1 440 105 L 440 245"
    fill="none" stroke="#111111" stroke-width="42"/>

  <!-- Right letterform: bottom arch -->
  <path d="M 280 255 L 280 395 A 50 50 0 0 1 330 445 L 390 445 A 50 50 0 0 0 440 395 L 440 255"
    fill="none" stroke="#111111" stroke-width="42"/>

  <!-- Teal gradient bar -->
  <rect x="38" y="215" width="424" height="70" fill="url(#teal)"/>
</svg>
